<?xml version="1.0" encoding="UTF-8"?>
<svg id="Camada_1" data-name="Camada 1" xmlns="http://www.w3.org/2000/svg" viewBox="0 0 370.39 444.43">
  <defs>
    <style>
      .cls-1 {
        font-family: Roboto-Medium, Roboto;
        font-size: 28.91px;
        font-weight: 500;
      }

      .cls-1, .cls-2 {
        fill: #121f3e;
      }

      .cls-3 {
        letter-spacing: 0em;
      }

      .cls-4 {
        letter-spacing: 0em;
      }

      .cls-5 {
        letter-spacing: -.01em;
      }

      .cls-2 {
        font-family: Roboto-Black, Roboto;
        font-size: 145.1px;
        font-weight: 800;
      }

      .cls-6 {
        letter-spacing: -.05em;
      }

      .cls-7 {
        letter-spacing: 0em;
      }

      .cls-8 {
        fill: #de2535;
      }

      .cls-9 {
        letter-spacing: -.01em;
      }
    </style>
  </defs>
  <path class="cls-8" d="M272.1,70.67l-12.74-9.39c-.14-.11-.22-.27-.22-.44v-29.52c0-.41-.33-.73-.73-.73-8.51,0-18.66.1-30.45.25-2.09.02-3.8-.27-5.92-1.05-16.56-6.11-28.47-10.56-35.73-13.35-1.08-.41-2.48-.28-4.19.42-5.17,2.14-14.54,5.61-28.12,10.42-1.79.63-3.91,1.38-6.37,2.25-2.4.85-5.16,1.26-8.28,1.24-8.46-.07-16.88-.16-25.28-.27-.25,0-.46.21-.46.46v52.87c0,.25.2.46.46.46h16.79c.37,0,.68.31.68.68v11.33c0,.5.62.73.94.36.85-.98,1.87-1.8,3.06-2.43.7-.37,1.57-.15,1.99.53l.73,1.16c.47.76,1.3,1.22,2.19,1.22h17.98c.3,0,.54.24.53.54-.16,5.09-.11,12.95.14,23.59.11,4.58-1.55,8.42-4.98,11.54-5.18,4.7-11.32,7.8-17.25,11.26-.67.39-1.51.4-2.19,0-6.89-3.94-12.97-6.86-19.1-12.24-.18-.15-.42-.26-.74-.3-.16-.02-.3.11-.28.27.51,3.98,1.54,7.69,3.08,11.15.13.3-.17.6-.47.47l-12.67-5.64c-.11-.05-.23-.08-.35-.11l-1.82-.29c-.35-.06-.62-.32-.68-.67-.95-5.15-1.43-8.67-1.44-10.56-.05-33.37-.07-69.59-.07-108.65,0-.32.26-.58.59-.58,32.99.06,49.86.08,50.6.06,1.77-.06,3.62-.51,5.53-1.37,10.06-4.53,19.55-9.63,28.47-15.32.61-.39,1.39-.39,2.01,0,9.24,5.88,19.31,11.28,30.19,16.22.97.44,3.03.64,6.18.61,14.29-.14,30.29-.19,47.99-.15.49,0,.89.41.89.89v52.55c0,.25-.28.4-.49.25M131.68,113.33c0-2.06-1.67-3.74-3.74-3.74s-3.74,1.67-3.74,3.74,1.67,3.74,3.74,3.74,3.74-1.67,3.74-3.74M145.97,113.41c0-2.09-1.69-3.78-3.78-3.78s-3.78,1.69-3.78,3.78,1.69,3.78,3.78,3.78,3.78-1.69,3.78-3.78M121.69,125.34l12.39.18c.09,0,.17-.08.17-.17v-.5c.06-3.64-2.75-6.63-6.27-6.68-3.51-.05-6.41,2.86-6.45,6.5v.5c0,.1.07.17.16.17M136.15,125.45l12.19.02c.16,0,.29-.13.29-.29v-.46c0-3.64-2.85-6.59-6.37-6.6-3.53,0-6.4,2.94-6.41,6.58v.46c0,.16.13.29.29.29h0Z"/>
  <path class="cls-8" d="M184.78,19.13c.65,0,1.09.05,1.32.13,13.1,5.13,25.99,9.91,38.68,14.33.24.08.24.41,0,.5-12.65,4.2-25.32,8.73-38.01,13.57-.88.33-1.57.5-2.07.5s-1.19-.17-2.06-.51c-12.67-4.91-25.31-9.51-37.93-13.79-.24-.08-.24-.42,0-.5,12.72-4.35,25.65-9.05,38.77-14.1.23-.08.67-.12,1.32-.12h0Z"/>
  <path class="cls-8" d="M205.34,43.83c.29-.11.6.11.6.42v13.05c0,.37-.24.7-.59.81-7.16,2.21-13.44,3.74-19.8,7.26-.46.26-1.02.27-1.49.02-7.73-4.02-16.09-6.23-24.39-9.23-.45-.16-.75-.59-.75-1.07v-12.77c0-.37.37-.62.71-.49l23.3,8.76c1.11.41,2.33.42,3.45.02l18.96-6.78h0Z"/>
  <path class="cls-8" d="M212.06,56.42c0,.12-.1.22-.22.22h-2.94c-.12,0-.22-.1-.22-.22v-13.97c0-.12.1-.22.22-.22h2.94c.12,0,.22.1.22.22v13.97h0Z"/>
  <path class="cls-8" d="M145.02,59.38c0,.8.24,1.55.72,2.25.09.14.21.26.35.36l1.19.78c.9.6,1.15,1.82.55,2.72l-1.85,2.8c-.28.43-.86.54-1.29.26l-1.5-.99c-.37-.24-.81-.33-1.24-.24-1.39.29-2.59.91-3.57,1.85-.22.21-.36.5-.4.8l-.25,2.11c-.08.65-.63,1.15-1.29,1.15h-3.33c-.67,0-1.2-.59-1.13-1.26.25-2.29-.95-3.78-3.59-4.47-.71-.19-1.33-.07-1.85.37-.65.53-1.12.78-1.41.76-.24-.02-.46-.1-.64-.24-1.18-.89-2.1-2.23-2.76-4.01-.22-.58.07-1.23.64-1.46,1.63-.67,2.45-1.8,2.44-3.37-.02-1.58-.85-2.68-2.49-3.33-.59-.23-.88-.87-.67-1.46.63-1.79,1.52-3.14,2.69-4.05.18-.14.41-.23.63-.24.29-.02.77.22,1.43.73.54.42,1.15.53,1.85.33,2.63-.72,3.81-2.24,3.53-4.53-.09-.67.43-1.26,1.11-1.28l3.33-.05c.66-.02,1.22.47,1.31,1.12l.28,2.11c.04.3.19.58.41.79,1,.92,2.2,1.52,3.59,1.79.44.08.89,0,1.24-.26l1.49-1.02c.42-.29,1.01-.18,1.29.24l1.9,2.77c.62.89.39,2.12-.51,2.73l-1.17.8c-.14.1-.26.22-.35.36-.46.71-.69,1.46-.68,2.27M129.98,57.12c-1.28,2.68-.08,5.91,2.69,7.24,2.76,1.32,6.04.21,7.32-2.46,1.28-2.68.08-5.91-2.69-7.24-2.76-1.32-6.04-.21-7.32,2.46h0Z"/>
  <path class="cls-8" d="M216.1,58.51l-.07-.24c-.15-.54.07-1.11.54-1.41l15.83-9.93c.51-.33,1.17-.32,1.67.02l11.21,7.43c.46.3,1.08.15,1.36-.33.97-1.72,2.33-1.8,4.08-.27.48.42.59,1.13.27,1.67-.72,1.23-1.66,2.23-2.8,2.99-.38.26-.89.26-1.28,0l-12.75-8.45c-.71-.47-1.63-.48-2.34-.03l-14.4,9.04c-.49.31-1.15.07-1.31-.5h0Z"/>
  <path class="cls-8" d="M229.25,74.85c-.23,0-.41-.18-.41-.4l-.19-15.92c-.03-2.04,1.78-3.72,4.04-3.75l.96-.02c2.26-.02,4.11,1.61,4.13,3.65l.2,15.92c0,.23-.17.41-.4.41l-8.32.1h0Z"/>
  <path class="cls-8" d="M258.32,131.42c0-.3-.35-.46-.57-.25-5.71,5.58-12.36,8.85-19.95,12.9-.76.41-1.68.41-2.45-.02-6.5-3.63-12.74-6.91-17.97-11.79-3.34-3.11-4.98-7.05-4.94-11.8.11-12.66.06-22.14-.13-28.45-.02-.57.07-2.08.24-4.54.02-.16.15-.28.31-.28h45.37c.42,0,.76-.35.76-.77v-3.16c0-.44-.35-.79-.78-.79h-45.39c-.37,0-.66.3-.66.67v1.5c0,.37-.31.68-.68.68h-51.76c-.38,0-.69.31-.69.69v8.75c0,.28-.24.52-.52.52h-17.64c-.29,0-.53-.24-.53-.53v-10.06c0-.32.25-.57.56-.57h16.75c.56,0,1.02-.46,1.02-1.02v-24.15c0-.22.22-.37.42-.3,1.96.73,6.82,2.44,14.59,5.13,3.96,1.37,7.52,3.05,10.68,5.04.39.24.89.24,1.26-.02,2.33-1.55,4.89-2.8,7.65-3.76,5.28-1.82,11.33-3.8,18.14-5.95.41-.13.82.18.82.6v18c0,.27.21.48.48.48h45.84c.29,0,.53-.24.53-.53v-4.21c0-.32.37-.5.62-.32l12.54,9.23c.25.19.41.49.41.81-.07,14.4-.07,23.72,0,27.97.2,10.93-.19,19.15-1.17,24.67-2.11,11.88-6.6,22.67-13.47,32.35-5.24,7.39-11.12,14.04-17.66,19.95-9.03,8.16-18.23,15.16-27.58,21-6.77,4.23-14.66,8.74-23.68,13.54-1.85.98-3.6,1.02-5.25.11-12.14-6.67-19.38-10.76-21.72-12.26-15.66-9.99-30.81-21.66-42.27-35.58-6-7.29-10.88-15.53-14.64-24.75-.16-.39.25-.77.63-.58,4.24,2.17,8.89,4.46,13.97,6.89,1.4.67,2.8,1.16,4.19,1.5.35.08.66.28.86.59,6.25,9.02,13.49,16.88,21.73,23.57,7.91,6.43,13.13,10.62,20.95,15.49,5.93,3.7,11.28,6.86,16.07,9.5,3.02,1.67,4.63.58,7.71-1.13,8.19-4.56,16.21-9.56,24.07-15.01,3.63-2.52,7.15-5.24,10.58-8.15.22-.19.14-.55-.15-.62-6.93-1.67-10.93-5.9-12.03-12.71-.52-3.23-.49-6.29.11-9.18.04-.19.21-.3.4-.28l9.74,1.34c.31.04.54.29.57.6l.22,3.57c.04.64.58,1.15,1.22,1.15h1.02c.61,0,1.09-.52,1.05-1.13l-.25-4.02c-.02-.38.24-.72.63-.76l8.26-1.01c.42-.06.84.17,1.01.56,1.09,2.45,1.63,4.97,1.63,7.54,0,.52.63.76.98.38,8.64-9.41,14.45-20.34,17.41-32.81.34-1.46.53-2.8.57-4.05M249.94,105h.02c.61-.54.68-1.46.16-2.06-3.57-4.2-7.69-6.44-12.37-6.71-8.45-.49-16.52,5.9-17.51,14.62-1.07,9.49,5.59,18.58,15.19,19.3.8.06,1.36-.76,1.02-1.48-.75-1.6-4.26-1.59-5.96-2.53-4.65-2.56-7.21-6.37-7.68-11.45-1.33-14.14,16.74-21.98,25.21-9.93.45.63,1.33.74,1.93.24M243.11,117.24c-.24-.25-.2-.66.08-.85l3.63-2.42c.7-.47.7-1.5,0-1.97-.02,0-.17-.06-.47-.15-5.06-1.44-10.13-2.81-15.18-4.11-.55-.14-.89-.08-1.01.19-.14.3-.16.64-.07.96l5.13,15.86c.2.61,1.05.63,1.28.02l.97-2.56c.17-.45.76-.55,1.06-.19l6.9,8.08c.79.93,2.2.98,3.06.11l2.04-2.04c.97-.97.97-2.54,0-3.51l-7.42-7.42h0Z"/>
  <path class="cls-8" d="M224.88,74.78h-8.55c-.26,0-.47-.21-.47-.47v-10.11c0-.16.09-.32.24-.41l8.55-4.93c.32-.18.71.05.71.41v15.05c0,.26-.21.47-.47.47h0Z"/>
  <path class="cls-8" d="M249.8,74.77h-8.01c-.37,0-.68-.31-.68-.68v-13.71c0-.49.51-.82.96-.62l8.01,3.57c.24.11.41.35.41.63v10.13c0,.37-.31.68-.68.68h0Z"/>
  <path class="cls-8" d="M174.67,103.26c0-.41.34-.73.75-.72,9.21.2,17.22-1.11,23.75-7.92.49-.5,1.33-.13,1.3.57-.11,2.25-.14,12.32-.08,30.21,0,.24-.02.39-.09.47-.36.49-1.06.53-1.49.09-5.95-6.3-14.45-8.88-23.15-8.84-.54,0-.99-.44-.99-.98v-12.88h0Z"/>
  <path class="cls-8" d="M172.11,116.09c0,.5-.39.92-.89.93l-1.05.02c-3.98.07-7.26-2.83-7.32-6.47l-.02-1.02c-.07-3.65,3.11-6.66,7.1-6.73l1.05-.02c.5,0,.92.39.93.89l.21,12.41h0Z"/>
  <path class="cls-8" d="M202.94,104.14s.02-.04.04-.04h.03c2.38-.02,4.33,2.62,4.36,5.88v.2c.02,3.27-1.89,5.93-4.28,5.94h-.03s-.04-.02-.04-.04l-.08-11.93h0Z"/>
  <path class="cls-8" d="M241.94,113.36c.33.09.38.53.08.69-1.87,1-3.47,2.51-4.8,4.54-.3.46-.99.37-1.18-.15l-2.41-6.72c-.09-.26.14-.52.41-.45l7.9,2.08h0Z"/>
  <path class="cls-8" d="M179.57,129.36c.18.42-.13.89-.59.89h-5.06c-.5,0-.92-.34-1.02-.83l-2-9.24c-.19-.87.47-1.69,1.37-1.69h3.53c.8,0,1.45.64,1.46,1.44.04,2.74.81,5.89,2.32,9.44h0Z"/>
  <path class="cls-8" d="M248.17,126.18c.34.37.3.94-.06,1.27l-.06.05c-.37.34-.94.3-1.27-.06l-6.46-7.15c-.34-.37-.3-.94.06-1.27l.06-.05c.37-.34.94-.3,1.27.06l6.46,7.15h0Z"/>
  <path class="cls-8" d="M162.03,162.76c-.36,0-.64-.29-.64-.64l-.04-24.04c0-2.15,1.85-3.91,4.15-3.91l36.11-.07c2.3,0,4.16,1.74,4.17,3.89l.04,24.04c0,.36-.28.64-.64.64l-43.15.08M197.56,140.15c0-.42-.34-.76-.76-.75h-5.04c-.42.01-.75.35-.75.77l.04,20.31c0,.42.34.76.76.75h5.04c.42-.01.75-.35.75-.77l-.04-20.31M187.67,161.17c.33,0,.59-.26.59-.59v-14.75c0-.33-.26-.59-.59-.59h-5.32c-.33,0-.59.26-.59.59v14.75c0,.33.26.59.59.59h5.32M179.24,152.69c0-.41-.34-.74-.74-.74l-5.04.03c-.41,0-.74.34-.74.74l.04,7.77c0,.41.34.74.74.74l5.04-.03c.41,0,.74-.34.74-.74l-.04-7.77h0Z"/>
  <path class="cls-8" d="M219.55,149.98c.11-3.76-1.9-7.46-5.5-8.68-.63-.22-1.42-.48-2.36-.8-.79-.26-.69-1.41.13-1.54,5.67-.87,9.33,6.1,10,10.77.03.2-.09.4-.28.47-.53.2-1.06.28-1.61.22-.23-.02-.4-.22-.39-.45h0Z"/>
  <path class="cls-8" d="M152.96,146.47c.1-.83.92-1.41,1.84-1.3.91.11,1.57.87,1.47,1.7-.1.83-.92,1.41-1.84,1.3-.91-.11-1.57-.87-1.47-1.7h0Z"/>
  <path class="cls-8" d="M150.48,170.11c0,.79-1.08,1.02-1.41.3-1.8-3.98-5.87-5.98-9.88-7.59-.5-.2-.84-.69-.84-1.24v-6.37c0-.83.53-1.56,1.31-1.84,3.98-1.37,7.32-3.59,10.06-6.67.26-.29.75-.11.75.28v23.12h0Z"/>
  <path class="cls-8" d="M224.88,150.97c5.01-.52,9.45,2.52,11.68,6.8.17.33-.05.72-.42.75l-8.8.56c-.25.02-.48-.14-.55-.37l-2.31-7.14c-.09-.28.11-.57.4-.6h0Z"/>
  <path class="cls-8" d="M222.8,151.59l1.58,7.32c.08.37-.2.73-.58.74-3.34.07-6.24-.26-8.69-.97-.49-.14-.74-.68-.54-1.15,1.44-3.2,3.99-5.29,7.67-6.28.24-.07.5.09.55.33h0Z"/>
  <path class="cls-8" d="M152.8,152.3s.03-.1.09-.1h.04c1.26-.11,2.38,1.11,2.51,2.71l.02.39c.13,1.6-.79,2.98-2.06,3.07h-.04s-.09-.02-.1-.07l-.47-6h0Z"/>
  <path class="cls-8" d="M135.89,160.84c0,.62-.5,1.12-1.11,1.12h-1.5c-2.06.02-3.73-1.54-3.74-3.48v-1.15c0-1.93,1.65-3.5,3.71-3.5h1.5c.62,0,1.12.49,1.13,1.11l.02,5.9h0Z"/>
  <path class="cls-8" d="M153.02,159.07c0-.1.08-.17.17-.17h.08c1.49.02,2.68,1.24,2.66,2.72v.39c-.02,1.49-1.24,2.67-2.72,2.66h-.08c-.1,0-.17-.08-.17-.17l.07-5.43h0Z"/>
  <path class="cls-8" d="M205.26,164.79c.24,0,.42.19.42.42v.24c0,1.81-1.57,3.28-3.5,3.28l-37.23-.07c-1.93,0-3.5-1.48-3.5-3.3v-.24c0-.23.2-.42.42-.42l43.39.08h0Z"/>
  <path class="cls-8" d="M198.63,177.71l.22.42c.24.46-.1,1.02-.62,1.02h-29.11c-.63,0-1.06-.64-.81-1.22.75-1.76,3.38-1.87,5.81-2.37.35-.07.62-.36.67-.72l.36-2.61c.11-.85.85-1.5,1.71-1.5h12.71c.8,0,1.5.56,1.66,1.34l.66,3.04c.09.41.42.72.83.77l4.15.57c.76.11,1.41.57,1.77,1.24h0Z"/>
  <path class="cls-8" d="M185.26,182.3c2.68,0,4.67,1.02,5.89,3.37.88,1.7.78,3.28-.3,4.77-.59.8-.5,1.59.25,2.36,1.15,1.16,1.89,2.94,1.63,4.33-.72,3.68-3.75,5.78-7.45,5.78s-6.73-2.09-7.45-5.77c-.27-1.39.48-3.17,1.63-4.34.75-.76.84-1.54.25-2.36-1.08-1.48-1.19-3.07-.31-4.77,1.22-2.34,3.2-3.37,5.88-3.37M187.56,187.87c0-1.25-1.01-2.26-2.26-2.26s-2.26,1.01-2.26,2.26,1.01,2.26,2.26,2.26,2.26-1.01,2.26-2.26M182.39,196.41c-.09,1.51,1.16,2.82,2.79,2.92,1.64.1,3.04-1.04,3.13-2.56.09-1.51-1.16-2.82-2.79-2.92-1.64-.1-3.04,1.04-3.13,2.56h0Z"/>
  <text class="cls-2" transform="translate(0 361.46)"><tspan x="0" y="0">IMDN</tspan></text>
  <text class="cls-1" transform="translate(7.46 401.91)"><tspan x="0" y="0">INST</tspan><tspan class="cls-5" x="63.42" y="0">I</tspan><tspan x="71.32" y="0">TU</tspan><tspan class="cls-9" x="107.99" y="0">T</tspan><tspan x="124.56" y="0">O DE </tspan><tspan class="cls-3" x="194.12" y="0">M</tspan><tspan class="cls-7" x="219.51" y="0">ARKETING </tspan><tspan x="52.87" y="34.69">DIG</tspan><tspan class="cls-5" x="99.98" y="34.69">I</tspan><tspan class="cls-6" x="107.88" y="34.69">T</tspan><tspan class="cls-4" x="123.31" y="34.69">AL E NEGÓCIO</tspan></text>
</svg>